# xmcd
#
# Track frame offsets: 
#        187
#        17575
#        33457
#        50355
#        63952
#        81347
#        98062
#        116640
#        135882
#        156157
#        170665
#        190450
#        208007
#        229910
#        246230
#        264115
#        283217
#
# Disc length: 4097 seconds
#
# Revision: 2
# Processed by: cddbd v1.4PL0 Copyright (c) Steve Scherf et al.
# Submitted via: ExactAudioCopy v0.90a11
#
DISCID=eb0fff11
DTITLE=The Judds - The Judds Collection (1983 - 1990) - Disc 2
DYEAR=1900
DGENRE=
TTITLE0=Give A Little Love
TTITLE1=Maybe Your Baby's Got The Blues
TTITLE2=I'm Falling In Love Tonight
TTITLE3=Let Me Tell You About Love
TTITLE4=The Sweetest Gift
TTITLE5=Turn It Lose
TTITLE6=One Man Woman
TTITLE7=Water Of Love
TTITLE8=River Of Time
TTITLE9=Cadillac Red
TTITLE10=Young Love (Strong Love)
TTITLE11=One Hundred And Two
TTITLE12=Born To Be Blue
TTITLE13=Guardian Angels
TTITLE14=Calling In The Wind
TTITLE15=Rompin' Stompin' Blues
TTITLE16=Love Can Build A Bridge
EXTD=
EXTT0=
EXTT1=
EXTT2=
EXTT3=
EXTT4=
EXTT5=
EXTT6=
EXTT7=
EXTT8=
EXTT9=
EXTT10=
EXTT11=
EXTT12=
EXTT13=
EXTT14=
EXTT15=
EXTT16=
PLAYORDER=
